<?xml version="1.0"?>
<svg xmlns="http://www.w3.org/2000/svg" xmlns:xlink="http://www.w3.org/1999/xlink" xmlns:svgjs="http://svgjs.com/svgjs" version="1.1" width="512" height="512" x="0" y="0" viewBox="0 0 64 64" style="enable-background:new 0 0 512 512" xml:space="preserve" class=""><g><path xmlns="http://www.w3.org/2000/svg" d="m53.966 33.579a13 13 0 0 0 -25.932 0 10 10 0 0 0 -1.969 19.513 7.433 7.433 0 0 1 2.135-4.363l2.12-2.121a4.5 4.5 0 0 1 6.363 0l2.117 2.122a7.435 7.435 0 0 1 2.173 4.8h.246a8.936 8.936 0 0 1 2.415-4.4l3.3-3.3a4.329 4.329 0 0 1 6.126 0l3.3 3.3a8.986 8.986 0 0 1 1.934 2.87 9.99 9.99 0 0 0 -4.328-18.422zm-4.966 1.954a1 1 0 0 1 -1-1 7.009 7.009 0 0 0 -7-7 1 1 0 0 1 0-2 9.01 9.01 0 0 1 9 9 1 1 0 0 1 -1 1z" fill="#23a287" data-original="#c4a2fc" style="" class=""/><path xmlns="http://www.w3.org/2000/svg" d="m57 55.5a6.955 6.955 0 0 0 -2.051-4.95l-3.3-3.3a2.333 2.333 0 0 0 -3.3 0l-3.3 3.3a7 7 0 1 0 11.951 4.95zm-4.879-3.536a1 1 0 0 1 1.414 0 4.969 4.969 0 0 1 1.465 3.536 1 1 0 0 1 -2 0 2.984 2.984 0 0 0 -.879-2.122 1 1 0 0 1 0-1.414z" fill="#23a287" data-original="#c4a2fc" style="" class=""/><path xmlns="http://www.w3.org/2000/svg" d="m39 54.033a5.458 5.458 0 0 0 -1.611-3.888l-2.121-2.123a2.505 2.505 0 0 0 -3.535 0l-2.121 2.123a5.5 5.5 0 1 0 9.388 3.888zm-4.439-2.474a1 1 0 0 1 1.414 0 3.477 3.477 0 0 1 1.025 2.474 1 1 0 0 1 -2 0 1.49 1.49 0 0 0 -.439-1.06 1 1 0 0 1 0-1.414z" fill="#23a287" data-original="#c4a2fc" style="" class=""/><g xmlns="http://www.w3.org/2000/svg" fill="#151a6a"><path d="m33 29.5a7 7 0 1 0 -10.89 5.815 10.334 10.334 0 0 0 -6.11 9.494v3.691a3 3 0 0 0 3 3h14a3 3 0 0 0 3-3v-4a10 10 0 0 0 -6.087-9.2 7 7 0 0 0 3.087-5.8zm-12 0a5 5 0 1 1 5 5 5.006 5.006 0 0 1 -5-5zm13 15v4a1 1 0 0 1 -1 1h-14a1 1 0 0 1 -1-1v-3.691a8.151 8.151 0 0 1 8.007-8.309 7.992 7.992 0 0 1 7.993 8z" fill="#175447" data-original="#151a6a" style="" class=""/><path d="m1.294 15.207 12 12a1 1 0 0 0 1.414 0l12-12a1 1 0 0 0 -.708-1.707h-3v-11a1 1 0 0 0 -2 0v12a1 1 0 0 0 1 1h1.586l-9.586 9.586-9.585-9.586h1.585a1 1 0 0 0 1-1v-12a1 1 0 0 0 -2 0v11h-3a1 1 0 0 0 -.706 1.707z" fill="#175447" data-original="#151a6a" style="" class=""/><path d="m50 19.5h-3v-14a1 1 0 0 0 -2 0v15a1 1 0 0 0 1 1h1.586l-6.586 6.586-6.585-6.586h1.585a1 1 0 0 0 1-1v-15a1 1 0 0 0 -2 0v14h-3a1 1 0 0 0 -.707 1.707l9 9a1 1 0 0 0 1.414 0l9-9a1 1 0 0 0 -.707-1.707z" fill="#175447" data-original="#151a6a" style="" class=""/><path d="m50 40.5h-2v-9a1 1 0 0 0 -2 0v10a1 1 0 0 0 1 1h.586l-3.586 3.586-3.585-3.586h.585a1 1 0 0 0 1-1v-7a1 1 0 0 0 -2 0v6h-2a1 1 0 0 0 -.707 1.707l6 6a1 1 0 0 0 1.414 0l6-6a1 1 0 0 0 -.707-1.707z" fill="#175447" data-original="#151a6a" style="" class=""/><path d="m8.708 45.207 6-6a1 1 0 0 0 -.708-1.707h-2v-7a1 1 0 0 0 -2 0v8a1 1 0 0 0 1 1h.586l-3.586 3.586-3.585-3.586h.585a1 1 0 0 0 1-1v-12a1 1 0 0 0 -2 0v11h-2a1 1 0 0 0 -.707 1.707l6 6a1 1 0 0 0 1.415 0z" fill="#175447" data-original="#151a6a" style="" class=""/></g></g></svg>
