<?xml version="1.0"?>
<svg xmlns="http://www.w3.org/2000/svg" xmlns:xlink="http://www.w3.org/1999/xlink" xmlns:svgjs="http://svgjs.com/svgjs" version="1.1" width="512" height="512" x="0" y="0" viewBox="0 0 64 64" style="enable-background:new 0 0 512 512" xml:space="preserve" class=""><g><path xmlns="http://www.w3.org/2000/svg" d="M46.661,35.2a4.715,4.715,0,0,0-3.689,1.684,1.036,1.036,0,0,1-1.619.006,4.722,4.722,0,0,0-3.692-1.69,3.593,3.593,0,0,0-3.5,3.825c0,2.636,2.108,6.129,8,8.122,5.892-1.993,8-5.486,8-8.122A3.593,3.593,0,0,0,46.661,35.2Z" style="" fill="#23a287" data-original="#c4a2fc"/><path xmlns="http://www.w3.org/2000/svg" d="M62,34.68a2.984,2.984,0,0,0,.093-3.152l-1.763-3.056a2.976,2.976,0,0,0-2.778-1.494l-5.163.31-3.47-2-2.313-4.626A2.984,2.984,0,0,0,43.925,19H40.4a2.983,2.983,0,0,0-2.683,1.658L35.4,25.284l-3.471,2-5.163-.31a2.984,2.984,0,0,0-2.777,1.494l-1.764,3.055a2.988,2.988,0,0,0,.1,3.154L25.171,39V43L22.32,47.32a2.988,2.988,0,0,0-.094,3.153l1.764,3.054a2.977,2.977,0,0,0,2.777,1.495l5.163-.309,3.471,2,2.313,4.626A2.985,2.985,0,0,0,40.4,63h3.528a2.986,2.986,0,0,0,2.683-1.658l2.313-4.626,3.47-2,5.163.309a2.953,2.953,0,0,0,2.778-1.495L62.1,50.473A2.985,2.985,0,0,0,62,47.319L59.151,43V39ZM42.468,49.152a1.006,1.006,0,0,1-.614,0c-7.146-2.3-9.693-6.741-9.693-10.127a5.609,5.609,0,0,1,5.5-5.825,6.808,6.808,0,0,1,4.5,1.665,6.808,6.808,0,0,1,4.5-1.665,5.609,5.609,0,0,1,5.5,5.825C52.161,42.411,49.614,46.849,42.468,49.152Z" style="" fill="#23a287" data-original="#c4a2fc"/><path xmlns="http://www.w3.org/2000/svg" d="M2.256,32.794a3,3,0,0,0-.353,3.49l2.558,4.432a2.988,2.988,0,0,0,3.2,1.438l4.412-.9L18,44.677l1.425,4.272A3,3,0,0,0,22.274,51h5.117a3,3,0,0,0,2.846-2.051l1.425-4.272,5.93-3.425,4.411.9a2.993,2.993,0,0,0,3.2-1.438l2.557-4.432a3,3,0,0,0-.353-3.491l-2.988-3.369V22.576l2.988-3.37a3,3,0,0,0,.353-3.49L45.2,11.285A2.992,2.992,0,0,0,42,9.845l-4.412.9-5.93-3.424L30.237,3.051A3,3,0,0,0,27.391,1H22.274a3,3,0,0,0-2.846,2.051L18,7.324l-5.93,3.424-4.412-.9a3,3,0,0,0-3.2,1.439L1.9,15.716a3,3,0,0,0,.353,3.49l2.988,3.37v6.848Zm28.076,10.34a1,1,0,0,0-.448.55L28.34,48.316a1,1,0,0,1-.949.684H25.832V38a1,1,0,0,0-1-1h-5V33a1,1,0,0,0-.292-.707l-2.449-2.448,2.6-4.33A1,1,0,0,0,19.832,25V23a8,8,0,0,1,16,0V39.959Zm-23.34-21.6-3.24-3.654a1,1,0,0,1-.117-1.163l2.558-4.432A1,1,0,0,1,7.26,11.8l4.783.979a1,1,0,0,0,.7-.113l6.588-3.8a1,1,0,0,0,.449-.55l1.544-4.632A1,1,0,0,1,22.274,3h5.117a1,1,0,0,1,.949.684l1.544,4.632a1,1,0,0,0,.448.55l6.589,3.8a1,1,0,0,0,.7.113l4.783-.978a.989.989,0,0,1,1.066.479l2.559,4.432a1,1,0,0,1-.117,1.163l-3.24,3.654a1,1,0,0,0-.252.663V29.8a1,1,0,0,0,.252.663l3.24,3.653a1,1,0,0,1,.117,1.164l-2.558,4.432a1,1,0,0,1-1.067.479l-4.573-.935V23a10,10,0,0,0-20,0v1.723l-2.857,4.762a1,1,0,0,0,.15,1.222l2.707,2.707V37a2,2,0,0,0,2,2h4V49H22.274a1,1,0,0,1-.949-.684l-1.544-4.632a1,1,0,0,0-.449-.55l-6.588-3.8a1,1,0,0,0-.7-.113L7.259,40.2a1,1,0,0,1-1.065-.479L3.635,35.284a1,1,0,0,1,.117-1.164l3.24-3.653a1,1,0,0,0,.252-.663V22.2A1,1,0,0,0,6.992,21.533Z" style="" fill="#175447" data-original="#151a6a" class=""/><path xmlns="http://www.w3.org/2000/svg" d="M27.832,17a5.961,5.961,0,0,0-4.242,1.757,2.429,2.429,0,0,0-.506,2.485c.656,2.446,4.061,5.851,6.506,6.507a2.461,2.461,0,0,0,2.485-.506A6,6,0,0,0,27.832,17Zm2.829,8.829c-.053.051-.248.069-.553-.012a9.81,9.81,0,0,1-5.092-5.092c-.082-.307-.063-.5-.012-.554a4,4,0,0,1,5.657,5.658Z" style="" fill="#175447" data-original="#151a6a" class=""/></g></svg>
