<?xml version="1.0"?>
<svg xmlns="http://www.w3.org/2000/svg" xmlns:xlink="http://www.w3.org/1999/xlink" xmlns:svgjs="http://svgjs.com/svgjs" version="1.1" width="512" height="512" x="0" y="0" viewBox="0 0 64 64" style="enable-background:new 0 0 512 512" xml:space="preserve" class=""><g><path xmlns="http://www.w3.org/2000/svg" d="m55.5 35v-6a10 10 0 0 0 -20 0v6h5v-6a5 5 0 0 1 10 0v6z" fill="#23a287" data-original="#c4a2fc" style="" class=""/><path xmlns="http://www.w3.org/2000/svg" d="m58.5 37h-26a3 3 0 0 0 -3 3v20a3 3 0 0 0 3 3h26a3 3 0 0 0 3-3v-20a3 3 0 0 0 -3-3zm-12 13.816v5.184a1 1 0 0 1 -2 0v-5.184a3 3 0 1 1 2 0z" fill="#23a287" data-original="#c4a2fc" style="" class=""/><g xmlns="http://www.w3.org/2000/svg" fill="#151a6a"><path d="m51.5 49h-4a1 1 0 0 1 -1-1v-31a15.989 15.989 0 0 0 -31.473-4h-4.669a4 4 0 1 0 0 2h4.281a15.9 15.9 0 0 0 -.139 2v5.7l-3.832 5.748a1 1 0 0 0 .232 1.352l3.6 2.7v6.5a3 3 0 0 0 3 3h6v6a1 1 0 0 1 -1 1h-7a1 1 0 0 0 0 2h7a3 3 0 0 0 3-3v-7a1 1 0 0 0 -1-1h-7a1 1 0 0 1 -1-1v-7a1 1 0 0 0 -.4-.8l-3.244-2.432 3.476-5.213a1.006 1.006 0 0 0 .168-.555v-6a13.884 13.884 0 0 1 .16-2h3.84v4a1 1 0 0 0 2 0v-4h1a1 1 0 0 1 1 1v4a1 1 0 0 0 2 0v-4a3 3 0 0 0 -3-3h-6.41a14 14 0 0 1 27.41 4v31a3 3 0 0 0 3 3h4a1 1 0 0 0 0-2zm-45-33a2 2 0 1 1 2-2 2 2 0 0 1 -2 2z" fill="#175447" data-original="#151a6a" style="" class=""/><path d="m33.5 10a3.99 3.99 0 0 0 -3.086 6.531l-.9 6.327a1 1 0 0 0 .986 1.142h6a1 1 0 0 0 .99-1.142l-.9-6.327a3.99 3.99 0 0 0 -3.09-6.531zm1.038 6.34.809 5.66h-3.694l.809-5.66a1 1 0 0 0 -.313-.877 1.974 1.974 0 0 1 -.649-1.463 2 2 0 0 1 4 0 1.974 1.974 0 0 1 -.649 1.463 1 1 0 0 0 -.313.877z" fill="#175447" data-original="#151a6a" style="" class=""/></g></g></svg>
