<?xml version="1.0"?>
<svg xmlns="http://www.w3.org/2000/svg" xmlns:xlink="http://www.w3.org/1999/xlink" xmlns:svgjs="http://svgjs.com/svgjs" version="1.1" width="512" height="512" x="0" y="0" viewBox="0 0 64 64" style="enable-background:new 0 0 512 512" xml:space="preserve" class=""><g><path xmlns="http://www.w3.org/2000/svg" d="M31,44.5V51a3,3,0,0,0,3,3h6v8a1,1,0,0,0,1,1H62a1,1,0,0,0,1-1V29a16,16,0,0,0-32,0v5.7l-3.832,5.748A1,1,0,0,0,27.4,41.8ZM48.09,47A1.406,1.406,0,1,1,49.5,45.6,1.406,1.406,0,0,1,48.09,47ZM41.247,26.948a6.91,6.91,0,1,1,7.843,7.8V40a1,1,0,0,1-2,0v-6.18a1,1,0,0,1,1-1,4.909,4.909,0,0,0,.1-9.817h-.1a4.909,4.909,0,0,0-4.864,4.223,5.153,5.153,0,0,0-.047.686,1,1,0,1,1-2,0A6.946,6.946,0,0,1,41.247,26.948Z" style="" fill="#23a287" data-original="#c4a2fc" class=""/><path xmlns="http://www.w3.org/2000/svg" d="M48,7H45V4a3,3,0,0,0-3-3H4A3,3,0,0,0,1,4V30a3,3,0,0,0,3,3H7v5a1,1,0,0,0,1.555.832L16,33.868V36a3,3,0,0,0,3,3H34.7l8.748,5.832A1,1,0,0,0,45,44V39h3a3,3,0,0,0,3-3V10A3,3,0,0,0,48,7ZM8,31H4a1,1,0,0,1-1-1V4A1,1,0,0,1,4,3H42a1,1,0,0,1,1,1V30a1,1,0,0,1-1,1H17a1.216,1.216,0,0,0-.555.168L9,36.132V32A1,1,0,0,0,8,31Zm41,5a1,1,0,0,1-1,1H44a1,1,0,0,0-1,1v4.132l-7.445-4.964A1.006,1.006,0,0,0,35,37H19a1,1,0,0,1-1-1V33H42a3,3,0,0,0,3-3V9h3a1,1,0,0,1,1,1Z" style="" fill="#175447" data-original="#151a6a" class=""/><path xmlns="http://www.w3.org/2000/svg" d="M13.037,24.685a5.016,5.016,0,0,0,3.821-.1,6.307,6.307,0,0,0,4.24,2.359,9.488,9.488,0,0,0,5.069-.918,11.586,11.586,0,0,0,3.18-2.043,6.406,6.406,0,0,0,3.171-1.358,9.316,9.316,0,0,0,3.438-6.286A8.85,8.85,0,0,0,33.7,9.465C31.247,6.851,27.379,6.822,24.031,8a4.456,4.456,0,0,0-.64-.492,5.506,5.506,0,0,0-4.68-.263A13.1,13.1,0,0,0,11,14.961a11.268,11.268,0,0,0-.97,5.108A5.433,5.433,0,0,0,13.037,24.685Zm5.087-7.209a2.54,2.54,0,0,1,2.065-1.442h.02a.693.693,0,0,1,.766.544c.322,1.074-.493,3.386-3.268,5.282A5.846,5.846,0,0,1,18.124,17.476Zm11.011,3.672a6.468,6.468,0,0,1-.623.83,2,2,0,0,1-.683-.235,3.052,3.052,0,0,1-1.308-2.124,4.559,4.559,0,0,1,.416-2.816c.684-1.345,2.032-1.963,2.764-.183A5.136,5.136,0,0,1,29.135,21.148ZM25.01,11.724a3.917,3.917,0,0,0,.071-1.95c2.445-.763,5.357-.863,7.164,1.06a6.92,6.92,0,0,1,1.721,5.3A7.3,7.3,0,0,1,31.5,20.872a6.839,6.839,0,0,0,.049-5.013A3.71,3.71,0,0,0,29.533,13.7c-1.773-.669-3.58.629-4.378,2.2a6.508,6.508,0,0,0-.6,4.072,5.03,5.03,0,0,0,2.221,3.475,10.92,10.92,0,0,1-1.42.757,7.639,7.639,0,0,1-4.007.76,4.379,4.379,0,0,1-2.683-1.331C22.232,21.265,23.5,18.02,22.891,16a2.953,2.953,0,0,0-.4-.84A6.592,6.592,0,0,0,25.01,11.724Zm-1.837-1.181a2.213,2.213,0,0,1-.09.644A4.177,4.177,0,0,1,20.27,13.98c-.126,0-.22,0-.321-.3-.146-.439.642-1.637,2.5-2.746C22.676,10.8,22.917,10.671,23.173,10.543ZM12.858,15.7a11.06,11.06,0,0,1,6.468-6.55,5.438,5.438,0,0,1,1.644-.282,3.049,3.049,0,0,1,.87.115q-.208.117-.413.238c-2.651,1.581-3.912,3.486-3.376,5.1a3,3,0,0,0,.114.289,5.065,5.065,0,0,0-1.782,1.885,7.778,7.778,0,0,0-.47,6.305,2.99,2.99,0,0,1-2.1.046,3.487,3.487,0,0,1-1.79-2.949A9.13,9.13,0,0,1,12.858,15.7Z" style="" fill="#175447" data-original="#151a6a" class=""/></g></svg>
